<svg id="Capa_2" height="36" width="auto" data-name="Capa 2" xmlns="http://www.w3.org/2000/svg" viewBox="0 0 659.45 58.33">
  <defs>
    <style>
      .cls-1 {
        fill: #fff;
      }
    </style>
  </defs>
  <g id="Capa_1-2" data-name="Capa 1">
    <g>
      <path class="cls-1" d="M0,58.33V0h19.51v58.33H0Z"/>
      <path class="cls-1" d="M99.5,0v46.66c0,3.25-1.13,6.01-3.39,8.27s-5.02,3.39-8.27,3.39h-9.97l-28.95-36.16v36.16h-19.41V11.67c0-3.25,1.13-6.01,3.39-8.27s5.02-3.39,8.27-3.39h9.97l28.95,36.16V0h19.41Z"/>
      <path class="cls-1" d="M179.5,0v15.59h-25.35v42.74h-19.41V15.59h-25.24V0h69.99Z"/>
      <path class="cls-1" d="M208.9,15.59v5.83h41.89v15.48h-41.89v5.83h50.58v15.59h-58.33c-3.25,0-6.01-1.13-8.27-3.39-2.26-2.26-3.39-5.02-3.39-8.27V11.67c0-3.25,1.13-6.01,3.39-8.27,2.26-2.26,5.02-3.39,8.27-3.39h58.33v15.59h-50.58Z"/>
      <path class="cls-1" d="M327.81,0c3.25,0,6.01,1.13,8.27,3.39,2.26,2.26,3.39,5.02,3.39,8.27v15.59c0,3.18-1.13,5.92-3.39,8.22-2.26,2.3-5.02,3.45-8.27,3.45h-4.56l16.23,19.41h-20.26l-16.33-19.41h-14v19.41h-19.41V0h58.33ZM320.07,23.33v-7.74h-31.18v7.74h31.18Z"/>
      <path class="cls-1" d="M407.81,0c3.25,0,6.01,1.13,8.27,3.39,2.26,2.26,3.39,5.02,3.39,8.27v11.98c0,1.13-.37,2.25-1.11,3.34-.74,1.1-1.68,1.82-2.81,2.17,1.13.35,2.07,1.08,2.81,2.17.74,1.1,1.11,2.21,1.11,3.34v11.98c0,3.25-1.13,6.01-3.39,8.27s-5.02,3.39-8.27,3.39h-58.33V0h58.33ZM400.07,21.42v-5.83h-31.18v5.83h31.18ZM400.07,42.74v-5.83h-31.18v5.83h31.18Z"/>
      <path class="cls-1" d="M487.8,0c3.25,0,6.01,1.13,8.27,3.39,2.26,2.26,3.39,5.02,3.39,8.27v15.59c0,3.18-1.13,5.92-3.39,8.22-2.26,2.3-5.02,3.45-8.27,3.45h-4.56l16.23,19.41h-20.26l-16.33-19.41h-14v19.41h-19.41V0h58.33ZM480.06,23.33v-7.74h-31.18v7.74h31.18Z"/>
      <path class="cls-1" d="M567.79,0c3.18,0,5.92,1.13,8.22,3.39,2.3,2.26,3.45,5.02,3.45,8.27v46.66h-19.51v-19.41h-31.07v19.41h-19.41V11.67c0-3.25,1.13-6.01,3.39-8.27s5.02-3.39,8.27-3.39h46.66ZM559.94,23.33v-7.74h-31.07v7.74h31.07Z"/>
      <path class="cls-1" d="M608.86,15.59v5.83h50.58v25.77c-.14,3.04-1.34,5.66-3.61,7.85-2.26,2.19-4.95,3.29-8.06,3.29h-58.33v-15.59h50.58v-5.83h-50.58V11.13c.14-3.11,1.36-5.74,3.66-7.9,2.3-2.16,4.97-3.23,8.01-3.23h58.33v15.59h-50.58Z"/>
    </g>
  </g>
</svg>