<?xml version="1.0"?>
<svg xmlns="http://www.w3.org/2000/svg" viewBox="0 0 64 64" width="512" height="512"><path d="M57.13,6H6.88A6.88,6.88,0,0,0,0,12.88V28.13A6.88,6.88,0,0,0,6.88,35H57.13A6.88,6.88,0,0,0,64,28.13V12.88A6.88,6.88,0,0,0,57.13,6ZM60,28.13A2.88,2.88,0,0,1,57.13,31H6.88A2.88,2.88,0,0,1,4,28.13V12.88A2.88,2.88,0,0,1,6.88,10H57.13A2.88,2.88,0,0,1,60,12.88Z"/><path d="M51.5,24h-39a2,2,0,0,0,0,4h39a2,2,0,0,0,0-4Z"/><circle cx="54" cy="14" r="2"/><path d="M41,37a2,2,0,0,0-2,2V53.5A7.5,7.5,0,1,0,46.5,46a2,2,0,0,0,0,4A3.5,3.5,0,1,1,43,53.5V39A2,2,0,0,0,41,37Z"/><path d="M28,49.55V39a2,2,0,0,0-4,0V49.55a2,2,0,0,1-4,0,2,2,0,0,0-4,0,6,6,0,0,0,12,0Z"/><path d="M35,49V39a2,2,0,0,0-4,0V49a2,2,0,0,0,4,0Z"/></svg>
