<svg id="Layer_1" enable-background="new 0 0 48 48" viewBox="0 0 48 48" xmlns="http://www.w3.org/2000/svg"><path d="m16 15c-1.654 0-3 1.346-3 3s1.346 3 3 3 3-1.346 3-3-1.346-3-3-3zm0 4c-.551 0-1-.449-1-1s.449-1 1-1 1 .449 1 1-.449 1-1 1zm8-4c-1.654 0-3 1.346-3 3s1.346 3 3 3 3-1.346 3-3-1.346-3-3-3zm0 4c-.551 0-1-.449-1-1s.449-1 1-1 1 .449 1 1-.449 1-1 1zm11-19h-22c-4.962 0-9 4.038-9 9v30c0 4.962 4.038 9 9 9h22c4.962 0 9-4.038 9-9v-30c0-4.962-4.038-9-9-9zm7 39c0 3.86-3.14 7-7 7h-22c-3.86 0-7-3.14-7-7v-14h14v14c0 2.206 1.794 4 4 4s4-1.794 4-4v-14h14zm-20 0v-14h4v14c0 1.103-.897 2-2 2s-2-.897-2-2zm20-16h-36v-14c0-3.86 3.14-7 7-7h22c3.86 0 7 3.14 7 7zm-8-19h-20c-.552 0-1 .448-1 1v7c0 .552.448 1 1 1h20c.552 0 1-.448 1-1v-7c0-.552-.448-1-1-1zm-1 7h-18v-5h18zm-1 4c-1.654 0-3 1.346-3 3s1.346 3 3 3 3-1.346 3-3-1.346-3-3-3zm0 4c-.551 0-1-.449-1-1s.449-1 1-1 1 .449 1 1-.449 1-1 1z"/></svg>