<svg height="512" viewBox="0 0 48 48" width="512" xmlns="http://www.w3.org/2000/svg"><g id="Rice_Cooker" data-name="Rice Cooker"><path d="m44 15h-1v-2a9.01 9.01 0 0 0 -9-9h-20a9.01 9.01 0 0 0 -9 9v2h-1a3 3 0 0 0 0 6h1v14a9.01 9.01 0 0 0 9 9h20a9.01 9.01 0 0 0 9-9v-14h1a3 3 0 0 0 0-6zm-16 20h-8v-6a4 4 0 0 1 8 0zm-4-12a6.006 6.006 0 0 0 -6 6v6h-11v-18h34v18h-11v-6a6.006 6.006 0 0 0 -6-6zm-10-17h20a7.008 7.008 0 0 1 7 7v2h-34v-2a7.008 7.008 0 0 1 7-7zm-10 13a1 1 0 0 1 0-2h1v2zm30 23h-20a7.01 7.01 0 0 1 -6.7-5h33.41a7.01 7.01 0 0 1 -6.71 5zm10-23h-1v-2h1a1 1 0 0 1 0 2z"/><path d="m25 28h-2a1 1 0 0 0 0 2h2a1 1 0 0 0 0-2z"/><path d="m25 31h-2a1 1 0 0 0 0 2h2a1 1 0 0 0 0-2z"/><path d="m19.5 13h9a2.5 2.5 0 0 0 0-5h-9a2.5 2.5 0 0 0 0 5zm0-3h9a.5.5 0 0 1 0 1h-9a.5.5 0 0 1 0-1z"/></g></svg>