<svg id="Layer_1" viewBox="0 0 64 64" xmlns="http://www.w3.org/2000/svg" data-name="Layer 1"><path d="m4.921 62h54.158c.553 0 1-.448 1-1v-52.039c0-3.838-3.129-6.961-6.975-6.961h-37.357c-3.157 0-6.126 1.23-8.361 3.465-2.234 2.235-3.465 5.204-3.465 8.361 0 .552.447 1 1 1h11.998v3.787c0 .552.447 1 1 1h1.421v8.016h-11.146c-.553 0-1 .448-1 1v6.716c0 5.685 3.128 10.645 7.747 13.274h-10.02c-.553 0-1 .448-1 1v11.381c0 .552.447 1 1 1zm31.821-34.371h-11.393v-8.016h1.425c.553 0 1-.448 1-1v-3.787h10.478c1.832 0 3.544.818 4.697 2.245s1.595 3.274 1.21 5.068l-5.635 26.479h-8.529c4.619-2.63 7.747-7.59 7.747-13.274v-6.716c0-.552-.447-1-1-1zm8.917-2.93h12.42v23.92h-17.51zm-36.859-17.82c1.857-1.857 4.324-2.879 6.947-2.879h37.357c2.743 0 4.975 2.226 4.975 4.961v13.738h-11.994l.03-.142c.512-2.386-.075-4.844-1.611-6.743-1.534-1.899-3.813-2.988-6.252-2.988h-32.281c.226-2.245 1.211-4.328 2.829-5.947zm10.119 7.947h6.855v2.787h-1.41c-.005 0-.009-.003-.015-.003s-.009.003-.015.003h-3.981c-.005 0-.009-.003-.015-.003s-.009.003-.015.003h-1.406v-2.787zm2.421 4.787h2.01v8.016h-2.01zm-12.146 15.732v-5.716h11.142s.003 0 .005 0 .003 0 .005 0h4s.003 0 .005 0 .003 0 .005 0h11.388v5.716c0 7.319-5.955 13.274-13.274 13.274s-13.274-5.955-13.274-13.274zm-3.272 15.274h52.158v9.381h-52.159v-9.381z"/><path d="m50.153 35.371c-3.246 0-5.888 2.641-5.888 5.888s2.642 5.887 5.888 5.887 5.887-2.641 5.887-5.887-2.641-5.888-5.887-5.888zm0 9.775c-2.144 0-3.888-1.744-3.888-3.887s1.744-3.888 3.888-3.888 3.887 1.744 3.887 3.888-1.743 3.887-3.887 3.887z"/></svg>