<svg viewBox="0 0 64 64" xmlns="http://www.w3.org/2000/svg"><g id="Layer_2" data-name="Layer 2"><path d="m28.53271 14.78268h-.30471v-1.93731a.99136.99136 0 0 0 0-1.43006v-3.11065a1.00005 1.00005 0 0 0 -1-1h-9.52146a1.00005 1.00005 0 0 0 -1 1v3.111a.99172.99172 0 0 0 0 1.42944v1.93762h-.3042a1.00006 1.00006 0 0 0 -1 1v44.00003a1.00006 1.00006 0 0 0 1 1h12.13037a1.00005 1.00005 0 0 0 1-1v-44.00007a1.00005 1.00005 0 0 0 -1-1zm-9.82617-1.65234h7.52146v1.60889h-7.52146zm7.52146-3.82568v1.82568h-7.52146v-1.82568zm1.30468 49.47809h-10.13034v-42.00007h10.13037zm17.31498-21.21735h-2.31495v-12.15234h.57618a1 1 0 0 0 0-2h-.57618v-1.19581h1.07618a1 1 0 0 0 0-2h-1.07618v-1.19531h1.57618a1 1 0 0 0 0-2h-1.57618v-1.1958h2.07618a1 1 0 0 0 0-2h-2.07618v-1.1958h1.57618a1 1 0 0 0 0-2h-1.57618v-1.19534h1.07618a1 1 0 1 0 0-2h-1.07618v-1.19577h.57618a1 1 0 0 0 0-2h-.57618v-.022a1 1 0 0 0 -2 0v.022h-.57617a1 1 0 0 0 0 2h.57617v1.19577h-1.07617a1 1 0 0 0 0 2h1.07617v1.19531h-1.57617a1 1 0 0 0 0 2h1.57617v1.1958h-2.07617a1 1 0 0 0 0 2h2.07617v1.1958h-1.57617a1 1 0 0 0 0 2h1.57617v1.19531h-1.07617a1 1 0 0 0 0 2h1.07617v1.19581h-.57617a1 1 0 1 0 0 2h.57617v12.15237h-2.31542a3.7541 3.7541 0 0 0 -3.75 3.75v15.71735a3.7541 3.7541 0 0 0 3.75 3.75h6.63037a3.7541 3.7541 0 0 0 3.75-3.75v-15.71735a3.7541 3.7541 0 0 0 -3.75-3.75zm1.75 19.46735a1.75213 1.75213 0 0 1 -1.75 1.75h-6.63037a1.75212 1.75212 0 0 1 -1.75-1.75v-15.71735a1.75212 1.75212 0 0 1 1.75-1.75h6.63037a1.75213 1.75213 0 0 1 1.75 1.75z"/></g></svg>