<svg height="512pt" viewBox="0 -36 512 512" width="512pt" xmlns="http://www.w3.org/2000/svg"><path d="m76 240c5.519531 0 10-4.480469 10-10s-4.480469-10-10-10-10 4.480469-10 10 4.480469 10 10 10zm0 0"/><path d="m482 0h-452c-16.542969 0-30 13.457031-30 30v340c0 16.542969 13.457031 30 30 30h36v30c0 5.523438 4.476562 10 10 10h80c5.523438 0 10-4.476562 10-10v-30h180v30c0 5.523438 4.476562 10 10 10h80c5.523438 0 10-4.476562 10-10v-30h36c16.542969 0 30-13.457031 30-30v-340c0-16.542969-13.457031-30-30-30zm-452 20h452c5.515625 0 10 4.484375 10 10v290h-46v-190c0-5.523438-4.476562-10-10-10h-360c-5.523438 0-10 4.476562-10 10v60c0 5.523438 4.476562 10 10 10s10-4.476562 10-10v-50h60v30c0 5.523438 4.476562 10 10 10h10v10c0 5.523438 4.476562 10 10 10s10-4.476562 10-10v-10h10c5.523438 0 10-4.476562 10-10v-30h100v30c0 5.523438 4.476562 10 10 10h10v10c0 5.523438 4.476562 10 10 10s10-4.476562 10-10v-10h10c5.523438 0 10-4.476562 10-10v-30h60v180h-50.027344c6.292969-8.363281 10.027344-18.753906 10.027344-30v-60c0-5.523438-4.476562-10-10-10h-80c-5.523438 0-10 4.476562-10 10v60c0 11.246094 3.734375 21.636719 10.027344 30h-80.054688c6.292969-8.363281 10.027344-18.753906 10.027344-30v-60c0-5.523438-4.476562-10-10-10h-80c-5.523438 0-10 4.476562-10 10v60c0 11.246094 3.734375 21.636719 10.027344 30h-50.027344v-50c0-5.523438-4.476562-10-10-10s-10 4.476562-10 10v50h-46v-290c0-5.515625 4.484375-10 10-10zm296 140v-20h20v20zm-160 0v-20h20v20zm140 130v-50h60v50c0 16.542969-13.457031 30-30 30s-30-13.457031-30-30zm-160 0v-50h60v50c0 16.542969-13.457031 30-30 30s-30-13.457031-30-30zm0 130h-60v-20h60zm280 0h-60v-20h60zm56-40h-452c-5.515625 0-10-4.484375-10-10v-30h472v30c0 5.515625-4.484375 10-10 10zm0 0"/><path d="m336 100c16.542969 0 30-13.457031 30-30s-13.457031-30-30-30-30 13.457031-30 30 13.457031 30 30 30zm0-40c5.515625 0 10 4.484375 10 10s-4.484375 10-10 10-10-4.484375-10-10 4.484375-10 10-10zm0 0"/><path d="m176 100c16.542969 0 30-13.457031 30-30s-13.457031-30-30-30-30 13.457031-30 30 13.457031 30 30 30zm0-40c5.515625 0 10 4.484375 10 10s-4.484375 10-10 10-10-4.484375-10-10 4.484375-10 10-10zm0 0"/></svg>