<svg id="Capa_1" enable-background="new 0 0 512 512" height="512" viewBox="0 0 512 512" width="512" xmlns="http://www.w3.org/2000/svg"><g><path d="m334.086 213.998h58.746c15.246 0 27.65-12.404 27.65-27.65v-47.344h57.846c18.565 0 33.67-15.104 33.67-33.671v-40.826c0-35.567-28.935-64.502-64.502-64.502-11.185 0-409.235-.005-419.973-.005-15.175 0-27.521 12.346-27.521 27.52v.004 469.471c0 8.284 6.716 15 15 15l469.475.005c15.175 0 27.52-12.346 27.52-27.52v-35.026c0-15.175-12.346-27.52-27.52-27.52h-43.005v-32.485h29.956c22.37 0 40.57-18.2 40.57-40.57v-29.096c0-22.37-18.2-40.57-40.57-40.57h-29.956v-6.897c0-15.246-12.404-27.65-27.65-27.65h-100.726c-15.246 0-27.65 12.404-27.65 27.65v149.619h-45.854v-282.93h66.844v47.344c0 15.245 12.404 27.649 27.65 27.649zm56.396-30h-54.046v-44.995h54.046zm-360.48 237.935v-282.93h179.588v282.93zm179.59 30.003v30.059h-179.59v-30.059zm0-342.937h-179.59v-78.994h179.59zm261.836 200.213c5.828 0 10.57 4.742 10.57 10.57v29.096c0 5.828-4.742 10.57-10.57 10.57h-29.956v-50.237h29.956zm-155.982-34.548h96.026v147.269h-96.026zm166.552 177.269v30.067h-242.406v-30.067zm-242.406-421.928h207.903c19.025 0 34.503 15.477 34.503 34.503v40.826c0 2.024-1.646 3.671-3.67 3.671-10.92 0-226.022 0-238.736 0z"/><path d="m119.796 182.998c-25.251 0-45.794 20.544-45.794 45.794v103.35c0 25.251 20.543 45.794 45.794 45.794s45.794-20.544 45.794-45.794v-103.35c.001-25.25-20.543-45.794-45.794-45.794zm15.795 149.144c0 8.709-7.085 15.795-15.795 15.795s-15.795-7.086-15.795-15.795v-103.35c0-8.709 7.085-15.795 15.795-15.795s15.795 7.086 15.795 15.795z"/></g></svg>