<svg id="Capa_1" enable-background="new 0 0 510 510" height="512" viewBox="0 0 510 510" width="512" xmlns="http://www.w3.org/2000/svg"><g><path d="m457.5 75v-15h-60c0-33.084-26.916-60-60-60h-105c-33.084 0-60 26.916-60 60v60h-30c-49.626 0-90 40.374-90 90v120h30v-120c0-33.084 26.916-60 60-60h22.86c-26.89 71.088-52.86 177.383-52.86 285v75h345v-75c0-109.149-26.716-216.935-54.009-288.011 31.167-9.104 54.009-37.92 54.009-71.989zm-259.95 75h174.9c23.601 58.883 47.557 147.427 53.597 240.938-12.462 1.527-20.727 4.674-28.263 7.545-9.181 3.497-17.108 6.518-34.036 6.518-16.929 0-24.856-3.021-34.037-6.518-10.438-3.976-22.268-8.482-44.716-8.482-22.447 0-34.277 4.507-44.714 8.482-9.18 3.497-17.108 6.518-34.035 6.518-16.926 0-24.854-3.021-34.033-6.518-7.536-2.871-15.8-6.018-28.26-7.545 6.04-93.511 29.996-182.055 53.597-240.938zm4.95-30v-30h165v30zm30-90h105c16.542 0 30 13.458 30 30h-165c0-16.542 13.458-30 30-30zm195 450h-285c.043-42.407-.105-46.749.154-58.953 20.435 3.175 28.303 13.953 63.592 13.953 22.448 0 34.277-4.507 44.715-8.482 9.18-3.497 17.107-6.518 34.034-6.518 16.928 0 24.855 3.021 34.036 6.518 10.438 3.976 22.267 8.482 44.717 8.482 22.448 0 34.278-4.507 44.716-8.482 5.899-2.247 11.295-4.293 18.882-5.472.258 12.193.11 15.836.154 58.954zm-30-362.579v-27.421h27.43c-4.527 12.766-14.664 22.895-27.43 27.421z"/><path d="m225 345h30c0-6.709 1.665-9.206 4.98-14.181 4.229-6.343 10.02-15.029 10.02-30.821s-5.791-24.478-10.02-30.821c-6.825-10.24-6.831-18.112 0-28.357 4.229-6.343 10.02-15.029 10.02-30.82h-30c0 6.707-1.664 9.203-4.98 14.177-4.229 6.343-10.02 15.028-10.02 30.819 0 15.792 5.791 24.479 10.02 30.821 6.827 10.243 6.83 18.114 0 28.361-4.229 6.344-10.02 15.03-10.02 30.822z"/><path d="m300 345h30c0-6.709 1.665-9.206 4.98-14.181 4.229-6.343 10.02-15.029 10.02-30.821s-5.791-24.478-10.02-30.821c-6.825-10.24-6.831-18.112 0-28.357 4.229-6.343 10.02-15.029 10.02-30.82h-30c0 6.707-1.664 9.203-4.98 14.177-4.229 6.343-10.02 15.028-10.02 30.819 0 15.792 5.791 24.479 10.02 30.821 6.827 10.243 6.83 18.114 0 28.361-4.229 6.344-10.02 15.03-10.02 30.822z"/></g></svg>