<?xml version="1.0" encoding="iso-8859-1"?>
<!-- Generator: Adobe Illustrator 19.0.0, SVG Export Plug-In . SVG Version: 6.00 Build 0)  -->
<svg version="1.1" id="Capa_1" xmlns="http://www.w3.org/2000/svg" xmlns:xlink="http://www.w3.org/1999/xlink" x="0px" y="0px"
	 viewBox="0 0 511.998 511.998" style="enable-background:new 0 0 511.998 511.998;" xml:space="preserve">
<g>
	<g>
		<path d="M488.468,160.322h-32.064c-19.251,0-35.327,13.824-38.842,32.064h-89.416c-17.396,0-31.548,14.152-31.548,31.549v0.516
			h-14.911c-4.316-4.909-10.635-8.016-17.67-8.016h-16.032c-7.035,0-13.354,3.107-17.67,8.016h-14.911v-0.516
			c0-17.396-14.152-31.549-31.548-31.549H94.439c-3.516-18.241-19.591-32.064-38.842-32.064H23.532
			C10.557,160.322,0,170.878,0,183.854v136.274c0,17.396,14.152,31.549,31.548,31.549H47.58c17.396,0,31.548-14.152,31.548-31.549
			v-16.548h151.185c4.316,4.909,10.635,8.016,17.67,8.016h16.032c7.035,0,13.354-3.107,17.67-8.016H432.87v16.548
			c0,17.396,14.152,31.549,31.548,31.549h16.032c17.396,0,31.548-14.152,31.548-31.549V183.854
			C512,170.878,501.443,160.322,488.468,160.322z M95.161,207.387h88.694c9.125,0,16.548,7.424,16.548,16.549v0.516H95.677
			c-0.285,0-0.516-0.231-0.516-0.516V207.387z M64.129,320.129c0,9.125-7.423,16.549-16.548,16.549H31.548
			c-9.125,0-16.548-7.424-16.548-16.549v-95.697l38.09,33.329c3.388,2.964,7.101,5.472,11.039,7.512V320.129z M215.918,271.518
			h8.533v16.548c0,0.173,0.009,0.344,0.013,0.517H79.129v-0.002v-18.089c3.462,0.671,6.999,1.024,10.572,1.024h94.154
			c4.142,0,7.5-3.357,7.5-7.5s-3.358-7.5-7.5-7.5H89.701c-9.835,0-19.33-3.567-26.733-10.045l-39.579-34.631
			C18.058,207.175,15,200.438,15,193.354v-9.499c0-4.705,3.828-8.532,8.532-8.532h32.064c13.545,0,24.564,11.02,24.564,24.564
			v24.049c0,8.556,6.96,15.516,15.516,15.516h128.788c-0.004,0.172-0.013,0.343-0.013,0.517v16.549h-8.533
			c-4.142,0-7.5,3.357-7.5,7.5S211.776,271.518,215.918,271.518z M272.548,288.064c0,4.705-3.827,8.532-8.532,8.532h-16.032
			c-4.705,0-8.532-3.827-8.532-8.532v-48.097c0-4.705,3.828-8.532,8.532-8.532h16.032c4.705,0,8.532,3.827,8.532,8.532V288.064z
			 M311.597,223.936c0-9.125,7.423-16.549,16.548-16.549h88.694v16.549c0,0.284-0.231,0.516-0.516,0.516H311.597V223.936z
			 M424.019,256.478c-4.138,0.176-7.351,3.673-7.175,7.811c0.171,4.03,3.492,7.183,7.488,7.183c0.107,0,0.215-0.002,0.323-0.007
			c2.768-0.117,5.512-0.456,8.215-0.982v18.097H287.535c0.004-0.172,0.013-0.342,0.013-0.516v-16.548h104.726
			c4.142,0,7.5-3.357,7.5-7.5s-3.358-7.5-7.5-7.5H287.548v-16.549c0-0.173-0.009-0.344-0.013-0.517h128.788
			c8.556,0,15.516-6.96,15.516-15.516v-24.049c0-13.545,11.02-24.564,24.564-24.564h32.064c4.705,0,8.532,3.827,8.532,8.532v9.499
			c0,7.084-3.058,13.822-8.389,18.486l-39.579,34.632C442.101,252.532,433.218,256.087,424.019,256.478z M497,320.129
			c0,9.125-7.423,16.549-16.548,16.549H464.42c-9.125,0-16.548-7.424-16.548-16.549v-54.865c3.949-2.043,7.665-4.551,11.039-7.503
			L497,224.432V320.129z"/>
	</g>
</g>
<g>
</g>
<g>
</g>
<g>
</g>
<g>
</g>
<g>
</g>
<g>
</g>
<g>
</g>
<g>
</g>
<g>
</g>
<g>
</g>
<g>
</g>
<g>
</g>
<g>
</g>
<g>
</g>
<g>
</g>
</svg>
