<svg id="Layer_1" enable-background="new 0 0 36 36" viewBox="0 0 36 36" xmlns="http://www.w3.org/2000/svg"><g><path d="m24.2616577 19.251709h1.1373901c1.3945313 0 2.6054688-.9448242 2.9433594-2.2983398l1.0166016-4.0678711c.4793434-1.9142981-.9662628-3.7700195-2.9433594-3.7700195h-1.4234619c.0220985-.2958546.1420479-1.9017167.1343994-1.7993164.1412086-2.0505962-1.4895382-3.7944336-3.5410156-3.7944336h-3.3867188v-.5205079c0-.5522461-.4472656-1-1-1s-1 .4477539-1 1v.5205078h-3.3779297c-2.0546284 0-3.6841278 1.7437272-3.5449219 3.7939453l.0195313.2744141h-.7265625c-1.5525994 0-2.5237508 1.6801901-1.7470703 3.0263672l3.0722656 5.3129883.3701172 5.1547852c.0749512 1.0512085.5541382 1.9882202 1.2771606 2.6643677-.7612305.6153564-1.300415 1.5006104-1.4578247 2.541687l-.8644409 5.7084961h-1.0095825c-.5527344 0-1 .4477539-1 1s.4472656 1 1 1h17.9775391c.5527344 0 1-.4477539 1-1s-.4472656-1-1-1h-1.008606l-.8644409-5.7075195c-.1575928-1.0428467-.697998-1.9290771-1.4608154-2.5446167.7217407-.6757813 1.2003784-1.6115112 1.2762451-2.661438zm-9.9563598 3.59375c-1.0712891 0-1.9697266-.8364258-2.046875-1.9042969l-.2416382-3.3643188c.1651001.0755615.324707.1616211.4984741.2637329 1.7436171 1.0254822 3.4656153 1.0316582 5.1933594-.0043945 1.0857182-.6512032 2.0266838-.6575966 3.09375-.0048828.3842773.2354126.838623.5073242 1.5097046.6564941l-.1766968 2.4538574c-.0771484 1.0673828-.9765625 1.9038086-2.046875 1.9038086zm12.1103515-11.7299805c.672369 0 1.1660843.6302872 1.0039063 1.2851563l-1.0166016 4.0678711c-.1162109.4609375-.5283203.7832031-1.0039063.7832031h-.9932251l.4421997-6.1362305zm-13.5947265-5.59375h8.7646484c.9117603 0 1.6059017.7763329 1.5458984 1.6503906l-.03125.4179688h-11.8007812l-.0273438-.4106445c-.0626173-.896842.6493817-1.6577149 1.5488282-1.6577149zm-4.2519532 4.0683594h14.3837891l-.4939575 6.8596191c-.2097778-.0817871-.3948975-.1908569-.6124878-.3239746-1.709938-1.0474491-3.4540253-1.0320749-5.1669922-.0048828-1.0901375.6538525-2.0258169.65658-3.1503906-.0043945-.4259644-.2505493-.9321899-.5442505-1.6942749-.6813965-.0213013-.1057129-.039917-.2131958-.0938215-.307373zm14.5869141 22.4086914h-11.9140625l.8183594-5.4091797c.1533203-1.0102539 1.0058594-1.7436523 2.0283203-1.7436523h6.2197266c1.0224609 0 1.8759766.7333984 2.0292969 1.7446289z"/><path d="m17.1988525 27.170166c-.6904297 0-1.2529297.5620117-1.2529297 1.2524414s.5625 1.2524414 1.2529297 1.2524414 1.2519531-.5620117 1.2519531-1.2524414-.5615234-1.2524414-1.2519531-1.2524414z"/></g></svg>