<svg height="512" viewBox="0 0 64 64" width="512" xmlns="http://www.w3.org/2000/svg"><g id="_x34_6_Electric_Scooter"><g><path d="m56 44c-3.72 0-6.845 2.556-7.737 6h-24.387c-.778-6.245-5.165-11.438-11.19-13.273l5.284-30.384c.102-.582-.06-1.179-.439-1.63-.381-.452-.941-.713-1.531-.713h-6c-1.104 0-2 .896-2 2s.896 2 2 2h3.622l-6.266 36.032c-4.11.33-7.356 3.775-7.356 7.968 0 4.411 3.589 8 8 8s8-3.589 8-8c0-3.235-1.934-6.021-4.704-7.281l.699-4.018c4.736 1.662 8.005 6.136 8.005 11.299 0 1.104.896 2 2 2h26.263c.892 3.444 4.017 6 7.737 6 4.411 0 8-3.589 8-8s-3.589-8-8-8zm-48 12c-2.206 0-4-1.794-4-4s1.794-4 4-4 4 1.794 4 4-1.794 4-4 4zm48 0c-2.206 0-4-1.794-4-4s1.794-4 4-4 4 1.794 4 4-1.794 4-4 4z"/><path d="m50.861 41.175c3.268-1.559 7.01-1.559 10.277 0 .278.133.571.195.86.195.747 0 1.463-.42 1.807-1.139.476-.997.053-2.19-.944-2.666-4.353-2.078-9.37-2.078-13.723 0-.997.476-1.419 1.669-.944 2.666.476.997 1.669 1.42 2.667.944z"/><path d="m28 26h4.764l-2.553 5.105c-.494.988-.093 2.189.895 2.684.287.144.592.211.893.211.733 0 1.44-.404 1.791-1.105l4-8c.31-.62.277-1.356-.088-1.946s-1.009-.949-1.702-.949h-4.764l2.553-5.105c.494-.988.093-2.189-.895-2.684-.987-.494-2.189-.094-2.684.895l-4 8c-.31.62-.277 1.356.088 1.946.365.589 1.009.948 1.702.948z"/></g></g></svg>